<svg width="22" height="22" viewBox="0 0 22 22" fill="none" xmlns="http://www.w3.org/2000/svg">
<path d="M10.9349 10.813C9.49509 10.813 8.2625 10.3003 7.23716 9.27497C6.21182 8.24963 5.69915 7.01704 5.69915 5.5772C5.69915 4.13737 6.21182 2.90478 7.23716 1.87944C8.2625 0.8541 9.49509 0.341431 10.9349 0.341431C12.3748 0.341431 13.6073 0.8541 14.6327 1.87944C15.658 2.90478 16.1707 4.13737 16.1707 5.5772C16.1707 7.01704 15.658 8.24963 14.6327 9.27497C13.6073 10.3003 12.3748 10.813 10.9349 10.813ZM0.463379 21.2845V17.6195C0.463379 16.8777 0.654485 16.1958 1.0367 15.5736C1.41891 14.9514 1.9259 14.4771 2.55769 14.1508C3.91026 13.4745 5.28465 12.9671 6.68086 12.6285C8.07706 12.2899 9.49509 12.121 10.9349 12.1219C12.3748 12.1219 13.7928 12.2912 15.189 12.6298C16.5852 12.9684 17.9596 13.4754 19.3122 14.1508C19.9448 14.478 20.4522 14.9527 20.8345 15.5749C21.2167 16.1971 21.4073 16.8786 21.4065 17.6195V21.2845H0.463379Z" fill="#1E1E1E"/>
</svg>
