<svg width="48" height="42" viewBox="0 0 48 42" fill="none" xmlns="http://www.w3.org/2000/svg">
<path fill-rule="evenodd" clip-rule="evenodd" d="M36.6932 7.51341C36.7865 7.67348 36.9498 7.78782 37.1598 7.78782C42.7598 7.78782 47.3332 12.2698 47.3332 17.7578V31.3409C47.3332 36.8289 42.7598 41.3109 37.1598 41.3109H10.8398C5.2165 41.3109 0.666504 36.8289 0.666504 31.3409V17.7578C0.666504 12.2698 5.2165 7.78782 10.8398 7.78782C11.0265 7.78782 11.2132 7.69635 11.2832 7.51341L11.4232 7.23901C11.5036 7.0729 11.5862 6.90228 11.67 6.72907C12.2669 5.49552 12.9273 4.13081 13.3365 3.32874C14.4098 1.27071 16.2298 0.127359 18.4932 0.104492H29.4832C31.7465 0.127359 33.5898 1.27071 34.6632 3.32874C35.0307 4.04913 35.5907 5.20958 36.1304 6.328C36.2417 6.55864 36.3521 6.7875 36.4598 7.01034L36.6932 7.51341ZM34.9898 16.2944C34.9898 17.4377 35.9232 18.3524 37.0898 18.3524C38.2565 18.3524 39.2132 17.4377 39.2132 16.2944C39.2132 15.151 38.2565 14.2135 37.0898 14.2135C35.9232 14.2135 34.9898 15.151 34.9898 16.2944ZM19.9632 19.8387C21.0598 18.764 22.4832 18.1923 23.9998 18.1923C25.5165 18.1923 26.9398 18.764 28.0132 19.8159C29.0865 20.8678 29.6698 22.2626 29.6698 23.749C29.6465 26.8132 27.1265 29.3057 23.9998 29.3057C22.4832 29.3057 21.0598 28.734 19.9865 27.6821C18.9132 26.6303 18.3298 25.2354 18.3298 23.749V23.7261C18.3065 22.2855 18.8898 20.8906 19.9632 19.8387ZM30.4632 30.106C28.8065 31.7296 26.5198 32.7357 23.9998 32.7357C21.5498 32.7357 19.2632 31.7982 17.5132 30.106C15.7865 28.391 14.8298 26.15 14.8298 23.749C14.8065 21.3708 15.7632 19.1299 17.4898 17.4148C19.2398 15.6998 21.5498 14.7623 23.9998 14.7623C26.4498 14.7623 28.7598 15.6998 30.4865 17.392C32.2132 19.107 33.1698 21.3708 33.1698 23.749C33.1465 26.2415 32.1198 28.4825 30.4632 30.106Z" fill="#200E32"/>
</svg>
