<svg width="600" height="447" viewBox="0 0 600 447" fill="none" xmlns="http://www.w3.org/2000/svg">
<path d="M599.903 392.817H0V393.117H599.903V392.817Z" fill="#EBEBEB"/>
<path d="M539.793 412.122H521.916V412.422H539.793V412.122Z" fill="#EBEBEB"/>
<path d="M397.4 415.385H386.974V415.685H397.4V415.385Z" fill="#EBEBEB"/>
<path d="M516.853 400.988H475.832V401.288H516.853V400.988Z" fill="#EBEBEB"/>
<path d="M131.535 407.178H79.7153V407.478H131.535V407.178Z" fill="#EBEBEB"/>
<path d="M160.906 407.178H142.213V407.478H160.906V407.178Z" fill="#EBEBEB"/>
<path d="M305.663 403.147H193.265V403.447H305.663V403.147Z" fill="#EBEBEB"/>
<path d="M284.354 339.305H52.6836C50.8687 339.302 49.1293 338.579 47.8471 337.295C46.5649 336.01 45.8447 334.269 45.8447 332.454V6.79091C45.8605 4.98643 46.5876 3.26105 47.8681 1.98954C49.1486 0.718034 50.8791 0.00309117 52.6836 0H284.354C286.171 0 287.914 0.721789 289.199 2.00658C290.483 3.29137 291.205 5.03393 291.205 6.8509V332.454C291.205 334.271 290.483 336.014 289.199 337.299C287.914 338.584 286.171 339.305 284.354 339.305ZM52.6836 0.239962C50.9483 0.243141 49.2851 0.934728 48.0592 2.16292C46.8332 3.39112 46.1447 5.05556 46.1447 6.79091V332.454C46.1447 334.19 46.8332 335.854 48.0592 337.082C49.2851 338.311 50.9483 339.002 52.6836 339.005H284.354C286.091 339.002 287.755 338.311 288.983 337.083C290.211 335.855 290.902 334.191 290.905 332.454V6.79091C290.902 5.05446 290.211 3.39005 288.983 2.16219C287.755 0.934338 286.091 0.243134 284.354 0.239962H52.6836Z" fill="#EBEBEB"/>
<path d="M543.884 339.305H312.201C310.385 339.302 308.645 338.579 307.361 337.295C306.077 336.011 305.354 334.27 305.351 332.454V6.79091C305.37 4.98533 306.099 3.25997 307.382 1.98879C308.664 0.717615 310.396 0.00305746 312.201 0H543.884C545.687 0.00624439 547.414 0.722583 548.692 1.99375C549.97 3.26492 550.695 4.9885 550.711 6.79091V332.454C550.711 334.267 549.993 336.006 548.713 337.29C547.433 338.574 545.697 339.299 543.884 339.305ZM312.201 0.239962C310.465 0.243134 308.801 0.934338 307.573 2.16219C306.345 3.39005 305.654 5.05446 305.651 6.79091V332.454C305.654 334.191 306.345 335.855 307.573 337.083C308.801 338.311 310.465 339.002 312.201 339.005H543.884C545.621 339.002 547.285 338.311 548.513 337.083C549.741 335.855 550.432 334.191 550.435 332.454V6.79091C550.432 5.05446 549.741 3.39005 548.513 2.16219C547.285 0.934338 545.621 0.243134 543.884 0.239962H312.201Z" fill="#EBEBEB"/>
<path d="M514.454 362.606C480.979 353.655 439.49 363.146 351.016 370.344C262.542 377.543 285.422 323.948 184.375 329.551C83.3269 335.154 22.1968 392.817 22.1968 392.817H563.406C563.406 392.817 558.474 374.34 514.454 362.606Z" fill="#FAFAFA"/>
<path d="M452.723 270.352C476.797 270.352 496.312 250.837 496.312 226.763C496.312 202.69 476.797 183.174 452.723 183.174C428.65 183.174 409.134 202.69 409.134 226.763C409.134 250.837 428.65 270.352 452.723 270.352Z" fill="#F5F5F5"/>
<path d="M464.584 272.555C468.441 248.792 452.305 226.402 428.542 222.545C404.78 218.688 382.39 234.824 378.532 258.586C374.675 282.349 390.812 304.739 414.574 308.596C438.337 312.454 460.727 296.317 464.584 272.555Z" fill="#F5F5F5"/>
<path d="M483.233 283.952C493.78 273.405 493.78 256.304 483.233 245.757C472.686 235.21 455.585 235.21 445.038 245.757C434.491 256.304 434.491 273.405 445.038 283.952C455.585 294.499 472.686 294.499 483.233 283.952Z" fill="#F5F5F5"/>
<path d="M405.955 219.817C426.191 219.817 442.597 203.411 442.597 183.175C442.597 162.938 426.191 146.532 405.955 146.532C385.718 146.532 369.312 162.938 369.312 183.175C369.312 203.411 385.718 219.817 405.955 219.817Z" fill="#F5F5F5"/>
<path d="M204.507 184.052C204.986 159.983 185.863 140.083 161.794 139.604C137.725 139.125 117.825 158.248 117.346 182.317C116.867 206.386 135.991 226.286 160.059 226.765C184.128 227.244 204.028 208.12 204.507 184.052Z" fill="#F5F5F5"/>
<path d="M236.49 231.627C250.374 211.961 245.686 184.763 226.019 170.879C206.352 156.996 179.154 161.684 165.271 181.35C151.387 201.017 156.075 228.215 175.742 242.099C195.409 255.982 222.607 251.294 236.49 231.627Z" fill="#F5F5F5"/>
<path d="M134.575 233.446C153.289 225.744 162.216 204.329 154.514 185.615C146.812 166.902 125.398 157.974 106.684 165.676C87.97 173.378 79.0429 194.792 86.7448 213.506C94.4467 232.22 115.861 241.147 134.575 233.446Z" fill="#F5F5F5"/>
<path d="M62.3057 225.84H79.3429L74.4957 214.094L62.3057 225.84Z" fill="#E0E0E0"/>
<path d="M202.107 217.033L130.359 177.752L72.3843 217.033V392.817H202.107V217.033Z" fill="#F0F0F0"/>
<path d="M202.107 392.817L438.829 392.817V217.033L202.107 217.033L202.107 392.817Z" fill="#E6E6E6"/>
<path d="M202.107 217.033H438.829V235.39L202.107 238.402V217.033Z" fill="#E0E0E0"/>
<path d="M166.401 271.72H94.3169V392.817H166.401V271.72Z" fill="#E0E0E0"/>
<path d="M100.676 275.644H87.958V392.817H100.676V275.644Z" fill="#FAFAFA"/>
<path d="M100.676 392.817H102.26L102.26 275.644H100.676L100.676 392.817Z" fill="#E6E6E6"/>
<path d="M172.76 392.817H174.344L174.344 275.644H172.76L172.76 392.817Z" fill="#E6E6E6"/>
<path d="M172.76 275.644H160.042V392.817H172.76V275.644Z" fill="#FAFAFA"/>
<path d="M177.54 276.443L177.103 263.732L82.7216 266.979L83.1588 279.689L177.54 276.443Z" fill="#FAFAFA"/>
<path d="M179.047 276.395L178.609 263.684L177.111 263.736L177.548 276.446L179.047 276.395Z" fill="#E6E6E6"/>
<path d="M130.359 173.24V180.691L208.574 225.84L213.098 220.189L130.359 173.24Z" fill="#FAFAFA"/>
<path d="M130.359 173.24V180.691L62.3062 225.84L57.7949 220.189L130.359 173.24Z" fill="#FAFAFA"/>
<path d="M445.861 220.188V227.639L208.575 225.84L213.098 220.188H445.861Z" fill="#FAFAFA"/>
<path d="M130.359 173.24H381.154L445.86 220.189H213.098L130.359 173.24Z" fill="#EBEBEB"/>
<path d="M285.422 321.548L280.227 318.885L273.952 321.548V392.817H285.422V321.548Z" fill="#F5F5F5"/>
<path d="M367.273 321.548L362.077 318.885L355.814 321.548V392.817H367.273V321.548Z" fill="#F5F5F5"/>
<path d="M469.652 321.548L464.457 318.885L458.194 321.548V392.817H469.652V321.548Z" fill="#F5F5F5"/>
<path d="M538.317 321.548L533.11 318.885L526.847 321.548V392.817H538.317V321.548Z" fill="#F5F5F5"/>
<path d="M372.258 331.805L265.486 337.326L265.988 347.032L372.76 341.511L372.258 331.805Z" fill="#F5F5F5"/>
<path d="M544.256 332.582L452.45 337.329L452.952 347.034L544.758 342.287L544.256 332.582Z" fill="#F5F5F5"/>
<path d="M479.808 340.729L363.543 337.116L363.241 346.829L479.506 350.443L479.808 340.729Z" fill="#F5F5F5"/>
<path d="M492.269 104.287C486.63 94.3409 477.175 87.2501 468.369 87.2501C465.845 87.1991 463.357 87.8596 461.191 89.156C459.025 90.4524 457.267 92.3324 456.119 94.5809C453.312 92.082 449.734 90.621 445.98 90.4415C439.981 90.4415 436.142 95.2408 435.914 101.996C433.074 100.5 429.951 99.6211 426.748 99.4161C420.749 99.1041 416.297 101.816 414.402 106.339C413.24 105.597 411.913 105.156 410.538 105.055C407.059 104.875 405.151 107.659 406.267 111.258C406.339 111.486 406.423 111.702 406.507 111.918H503.847C503.643 108.391 496.588 104.467 492.269 104.287Z" fill="#FAFAFA"/>
<path d="M220.801 133.622C253.077 133.622 279.243 107.457 279.243 75.1798C279.243 42.9028 253.077 16.7372 220.801 16.7372C188.524 16.7372 162.358 42.9028 162.358 75.1798C162.358 107.457 188.524 133.622 220.801 133.622Z" fill="#F0F0F0"/>
<path d="M373.764 59.5465C364.705 43.5771 349.552 32.2029 335.37 32.2029C331.321 32.1232 327.332 33.1833 323.857 35.2624C320.382 37.3415 317.561 40.3557 315.717 43.961C310.654 39.8097 304.919 37.3261 299.448 37.3261C289.85 37.3261 283.647 45.0169 283.299 55.8631C278.733 53.4729 273.719 52.063 268.577 51.7238C258.895 51.2319 251.78 55.6591 248.768 62.846C246.907 61.6446 244.774 60.9308 242.565 60.7703C236.986 60.4944 233.927 64.9576 235.714 70.7287C235.834 71.0887 235.966 71.4366 236.086 71.7845H392.337C392.013 66.1335 380.699 59.8225 373.764 59.5465Z" fill="#FAFAFA"/>
<path d="M189.066 106.627C188.803 106.59 188.539 106.57 188.274 106.567C185.406 102.968 182.095 100.676 179.251 100.676C178.272 100.681 177.32 100.995 176.531 101.575C175.742 102.155 175.157 102.97 174.86 103.903C169.593 96.9205 163.33 92.3853 157.991 92.3853C153.683 92.3853 150.792 95.3368 149.52 100.148C146.688 97.4124 143.689 95.7687 141.025 95.7687C136.346 95.7687 134.042 100.844 134.87 108.007C132.627 106.487 130.043 105.543 127.348 105.259C122.608 104.935 119.573 107.851 118.757 112.602C117.842 111.851 116.73 111.38 115.553 111.246C112.962 111.066 111.846 113.646 112.914 117.185H202.084C199.6 111.882 193.937 107.227 189.066 106.627Z" fill="#FAFAFA"/>
<path d="M523.26 51.1479H522.816C521.16 49.0722 519.217 47.7524 517.609 47.7524C517.047 47.7584 516.501 47.9413 516.049 48.2751C515.596 48.6089 515.261 49.0767 515.089 49.6121C512.066 45.5928 508.454 42.9772 505.383 42.9772C502.899 42.9772 501.219 44.6809 500.512 47.4525C499.253 46.029 497.506 45.1298 495.616 44.9329C492.917 44.9329 491.597 47.8484 492.017 51.9637C490.739 51.098 489.268 50.5584 487.734 50.392C485.01 50.2 483.258 51.8797 482.79 54.6153C482.261 54.1855 481.62 53.9151 480.943 53.8354C479.455 53.7274 478.819 55.2392 479.431 57.2549H530.759C529.331 54.1714 526.067 51.4958 523.26 51.1479Z" fill="#F5F5F5"/>
<path d="M299.951 447C428.43 447 532.582 440.919 532.582 433.418C532.582 425.917 428.43 419.836 299.951 419.836C171.473 419.836 67.3208 425.917 67.3208 433.418C67.3208 440.919 171.473 447 299.951 447Z" fill="#F5F5F5"/>
<path d="M362.03 53.7273C359.767 52.3076 357.58 50.7697 355.479 49.1201C355.32 48.6896 355.097 48.2852 354.819 47.9203C356.151 48.4002 357.543 48.9521 358.91 49.576C358.954 49.5883 358.999 49.5883 359.042 49.576C359.107 49.5762 359.171 49.5583 359.226 49.5244C359.281 49.4905 359.325 49.4419 359.354 49.384C359.388 49.3008 359.39 49.2078 359.359 49.1234C359.328 49.0391 359.266 48.9694 359.186 48.9281C357.435 48.1482 355.647 47.4523 354.003 46.8764C347.14 38.8257 336.354 30.2231 329.923 31.063C328.987 30.5951 328.027 30.0911 327.08 29.5632C327.042 29.5399 327 29.5244 326.957 29.5178C326.913 29.5112 326.868 29.5136 326.826 29.5248C326.783 29.5361 326.743 29.5559 326.708 29.5831C326.674 29.6104 326.645 29.6444 326.624 29.6832C326.579 29.7616 326.567 29.8541 326.589 29.9414C326.612 30.0287 326.667 30.1038 326.744 30.1511C327.451 30.5471 328.159 30.931 328.867 31.3509C328.368 31.5204 327.886 31.7374 327.427 31.9988L326.624 31.8789C325.424 31.195 324.224 30.4391 323.12 29.6352C323.084 29.61 323.043 29.5921 323 29.5827C322.957 29.5732 322.912 29.5724 322.869 29.5802C322.825 29.588 322.784 29.6043 322.747 29.6282C322.71 29.652 322.677 29.6829 322.652 29.7192C322.601 29.7943 322.58 29.8866 322.596 29.9763C322.612 30.0661 322.662 30.146 322.736 30.1991C323.468 30.703 324.2 31.183 324.944 31.6389L323.564 31.4829C323.476 31.4788 323.39 31.507 323.321 31.5623C323.253 31.6176 323.207 31.696 323.192 31.7829C323.185 31.8733 323.214 31.9628 323.273 32.0322C323.331 32.1017 323.414 32.1457 323.504 32.1548C323.504 32.1548 324.704 32.2748 326.396 32.5268H326.504C321.884 35.6822 316.149 43.133 313.366 47.5243C319.245 59.2584 349.024 65.7014 349.024 65.7014C349.024 65.7014 349.744 60.0743 354.831 53.3434C354.948 53.1672 355.052 52.9827 355.143 52.7915C356.271 53.7153 357.003 54.2552 357.015 54.2792C357.082 54.2965 357.152 54.2965 357.219 54.2792C357.272 54.2789 357.324 54.2668 357.371 54.244C357.419 54.2212 357.461 54.1882 357.495 54.1473C357.547 54.0737 357.57 53.9823 357.556 53.8927C357.543 53.8031 357.495 53.7222 357.423 53.6674C357.423 53.6674 356.631 53.0794 355.431 52.0956C355.68 51.4464 355.771 50.7471 355.695 50.0559C358.934 52.5395 361.694 54.1953 361.694 54.2193C361.753 54.2356 361.815 54.2356 361.874 54.2193C361.931 54.2212 361.988 54.2078 362.039 54.1803C362.09 54.1529 362.132 54.1125 362.162 54.0633C362.173 54.0006 362.166 53.9361 362.143 53.8769C362.12 53.8176 362.081 53.7659 362.03 53.7273Z" fill="#407BFF"/>
<path d="M373.752 66.4452C374.952 66.6852 375.756 66.8052 375.78 66.8052C375.861 66.806 375.94 66.7773 376.002 66.7243C376.064 66.6714 376.104 66.5978 376.116 66.5172C376.122 66.4731 376.12 66.428 376.109 66.3846C376.099 66.3413 376.079 66.3005 376.052 66.2648C376.025 66.229 375.992 66.199 375.953 66.1764C375.915 66.1538 375.872 66.1392 375.828 66.1333C375.828 66.1333 374.556 65.9293 372.672 65.5334C372.336 65.2574 371.988 64.9935 371.628 64.7175C372.972 64.7175 374.364 64.6455 375.768 64.7175C375.857 64.7175 375.942 64.6821 376.005 64.6191C376.068 64.5561 376.104 64.4707 376.104 64.3816C376.104 64.2933 376.07 64.2083 376.01 64.1437C375.95 64.0791 375.868 64.0397 375.78 64.0336C374.064 64.0336 372.348 64.0336 370.752 64.1176C370.177 63.7097 369.553 63.3258 368.953 62.9178C372.48 63.4457 375.108 63.6137 375.144 63.6137C375.229 63.6139 375.311 63.5818 375.373 63.5239C375.436 63.466 375.474 63.3866 375.48 63.3018C375.483 63.2576 375.478 63.2133 375.464 63.1713C375.45 63.1292 375.428 63.0904 375.399 63.057C375.37 63.0235 375.334 62.9961 375.295 62.9764C375.255 62.9566 375.212 62.9449 375.168 62.9418C372.505 62.7448 369.854 62.4124 367.225 61.946C365.108 60.8282 362.859 59.9817 360.53 59.4264C343.325 55.491 326.696 44.2008 315.045 41.7892C310.774 40.9134 304.931 39.5936 299.328 38.5137C296.39 37.2915 293.537 35.8766 290.785 34.2784C290.747 34.2548 290.704 34.2392 290.66 34.2324C290.615 34.2257 290.57 34.228 290.526 34.2392C290.482 34.2504 290.441 34.2702 290.405 34.2976C290.37 34.325 290.34 34.3592 290.317 34.3984C290.274 34.4749 290.262 34.5657 290.284 34.651C290.306 34.7363 290.362 34.8093 290.437 34.8543C291.637 35.5382 292.753 36.1621 293.881 36.738C291.481 36.1141 289.178 35.6702 287.462 35.3823C286.322 34.6744 285.146 33.9065 283.994 33.0786C283.923 33.0264 283.833 33.0047 283.746 33.0182C283.658 33.0317 283.579 33.0793 283.527 33.1506C283.476 33.2252 283.456 33.3157 283.469 33.4045C283.483 33.4933 283.529 33.5739 283.598 33.6305C284.318 34.1465 285.05 34.6384 285.782 35.1183C284.93 34.9863 284.426 34.9263 284.402 34.9263C284.358 34.9216 284.314 34.9256 284.271 34.9381C284.229 34.9506 284.189 34.9714 284.154 34.9993C284.12 35.0271 284.091 35.0615 284.07 35.1005C284.049 35.1394 284.035 35.1822 284.03 35.2263C284.026 35.2704 284.03 35.315 284.042 35.3576C284.055 35.4001 284.076 35.4398 284.103 35.4744C284.131 35.5089 284.166 35.5376 284.205 35.5589C284.244 35.5801 284.286 35.5935 284.33 35.5982C284.33 35.5982 285.53 35.7422 287.21 36.0301C287.654 36.3061 288.086 36.5701 288.506 36.81C283.982 36.3781 281.031 36.678 281.655 38.4418C282.975 42.2212 291.181 46.9124 301.392 49.312C299.676 49.24 297.792 49.108 295.921 48.8681C295.832 48.8611 295.744 48.8883 295.675 48.9441C295.606 48.9999 295.561 49.08 295.549 49.168C295.538 49.2554 295.563 49.3433 295.617 49.4128C295.67 49.4824 295.749 49.528 295.837 49.54C298.743 49.8909 301.668 50.0592 304.595 50.0439H305.063C306.419 50.2719 307.787 50.4758 309.19 50.6198C322.76 51.9636 347.992 74.34 363.95 78.5993C383.026 83.6745 382.043 73.968 373.752 66.4452Z" fill="#407BFF"/>
<path opacity="0.3" d="M373.752 66.4452C374.952 66.6852 375.756 66.8052 375.78 66.8052C375.861 66.806 375.94 66.7773 376.002 66.7243C376.064 66.6714 376.104 66.5978 376.116 66.5172C376.122 66.4731 376.12 66.428 376.109 66.3846C376.099 66.3413 376.079 66.3005 376.052 66.2648C376.025 66.229 375.992 66.199 375.953 66.1764C375.915 66.1538 375.872 66.1392 375.828 66.1333C375.828 66.1333 374.556 65.9293 372.672 65.5334C372.336 65.2574 371.988 64.9935 371.628 64.7175C372.972 64.7175 374.364 64.6455 375.768 64.7175C375.857 64.7175 375.942 64.6821 376.005 64.6191C376.068 64.5561 376.104 64.4707 376.104 64.3816C376.104 64.2933 376.07 64.2083 376.01 64.1437C375.95 64.0791 375.868 64.0397 375.78 64.0336C374.064 64.0336 372.348 64.0336 370.752 64.1176C370.177 63.7097 369.553 63.3258 368.953 62.9178C372.48 63.4457 375.108 63.6137 375.144 63.6137C375.229 63.6139 375.311 63.5818 375.373 63.5239C375.436 63.466 375.474 63.3866 375.48 63.3018C375.483 63.2576 375.478 63.2133 375.464 63.1713C375.45 63.1292 375.428 63.0904 375.399 63.057C375.37 63.0235 375.334 62.9961 375.295 62.9764C375.255 62.9566 375.212 62.9449 375.168 62.9418C372.505 62.7448 369.854 62.4124 367.225 61.946C365.108 60.8282 362.859 59.9817 360.53 59.4264C343.325 55.491 326.696 44.2008 315.045 41.7892C310.774 40.9134 304.931 39.5936 299.328 38.5137C296.39 37.2915 293.537 35.8766 290.785 34.2784C290.747 34.2548 290.704 34.2392 290.66 34.2324C290.615 34.2257 290.57 34.228 290.526 34.2392C290.482 34.2504 290.441 34.2702 290.405 34.2976C290.37 34.325 290.34 34.3592 290.317 34.3984C290.274 34.4749 290.262 34.5657 290.284 34.651C290.306 34.7363 290.362 34.8093 290.437 34.8543C291.637 35.5382 292.753 36.1621 293.881 36.738C291.481 36.1141 289.178 35.6702 287.462 35.3823C286.322 34.6744 285.146 33.9065 283.994 33.0786C283.923 33.0264 283.833 33.0047 283.746 33.0182C283.658 33.0317 283.579 33.0793 283.527 33.1506C283.476 33.2252 283.456 33.3157 283.469 33.4045C283.483 33.4933 283.529 33.5739 283.598 33.6305C284.318 34.1465 285.05 34.6384 285.782 35.1183C284.93 34.9863 284.426 34.9263 284.402 34.9263C284.358 34.9216 284.314 34.9256 284.271 34.9381C284.229 34.9506 284.189 34.9714 284.154 34.9993C284.12 35.0271 284.091 35.0615 284.07 35.1005C284.049 35.1394 284.035 35.1822 284.03 35.2263C284.026 35.2704 284.03 35.315 284.042 35.3576C284.055 35.4001 284.076 35.4398 284.103 35.4744C284.131 35.5089 284.166 35.5376 284.205 35.5589C284.244 35.5801 284.286 35.5935 284.33 35.5982C284.33 35.5982 285.53 35.7422 287.21 36.0301C287.654 36.3061 288.086 36.5701 288.506 36.81C283.982 36.3781 281.031 36.678 281.655 38.4418C282.975 42.2212 291.181 46.9124 301.392 49.312C299.676 49.24 297.792 49.108 295.921 48.8681C295.832 48.8611 295.744 48.8883 295.675 48.9441C295.606 48.9999 295.561 49.08 295.549 49.168C295.538 49.2554 295.563 49.3433 295.617 49.4128C295.67 49.4824 295.749 49.528 295.837 49.54C298.743 49.8909 301.668 50.0592 304.595 50.0439H305.063C306.419 50.2719 307.787 50.4758 309.19 50.6198C322.76 51.9636 347.992 74.34 363.95 78.5993C383.026 83.6745 382.043 73.968 373.752 66.4452Z" fill="black"/>
<path d="M304.007 145.453L303.359 146.484L302.783 147.336L301.667 148.968C300.923 150.036 300.144 151.056 299.376 152.076C297.828 154.127 296.184 156.059 294.492 157.991C292.801 159.922 291.013 161.758 289.165 163.582C287.318 165.405 285.386 167.181 283.322 168.861C281.259 170.541 279.159 172.196 276.903 173.756C274.584 175.33 272.181 176.776 269.704 178.087C267.115 179.479 264.428 180.682 261.666 181.687C258.731 182.706 255.717 183.48 252.655 184.002L251.215 184.254C250.366 184.398 249.498 184.398 248.648 184.254C245.209 183.66 241.814 182.834 238.485 181.783C235.309 180.768 232.186 179.595 229.127 178.267C227.627 177.595 226.139 176.912 224.676 176.192C223.212 175.472 221.784 174.68 220.356 173.9C218.929 173.12 217.549 172.256 216.169 171.38C214.789 170.505 213.481 169.605 212.03 168.537C210.703 167.563 209.723 166.19 209.232 164.619C208.741 163.048 208.766 161.361 209.302 159.805C209.838 158.249 210.857 156.905 212.212 155.97C213.566 155.035 215.184 154.557 216.829 154.607H217.705C219.061 154.607 220.596 154.847 222.048 154.955L226.427 155.399L230.759 155.819C232.186 155.975 233.614 156.095 235.018 156.215C237.838 156.515 240.621 156.647 243.309 156.803C245.996 156.959 248.612 156.983 251.083 156.959L247.16 157.175C250.023 156.155 252.741 154.767 255.247 153.047C256.688 152.072 258.077 151.023 259.41 149.904C260.814 148.8 262.194 147.504 263.561 146.304C266.261 143.701 268.961 140.881 271.516 137.906C272.8 136.43 274.036 134.87 275.272 133.347L277.071 131.031L278.631 128.967L279.195 128.223C281.541 125.069 285.021 122.95 288.9 122.316C292.78 121.681 296.754 122.58 299.983 124.822C303.211 127.064 305.441 130.474 306.201 134.331C306.961 138.188 306.192 142.189 304.055 145.489L304.007 145.453Z" fill="#FFC3BD"/>
<path d="M317.949 120.953C314.278 153.491 269.477 181.027 269.477 181.027C259.974 179.983 250.616 164.23 249.272 153.959C249.272 153.959 276.772 115.482 290.713 107.875C303.551 100.784 319.557 106.135 317.949 120.953Z" fill="#263238"/>
<path d="M252.211 147.996C249.368 150.732 247.292 152.796 247.304 155.903C248.36 158.831 255.115 180.283 259.662 183.259C264.21 186.234 271.012 182.287 276.844 178.087C277.299 166.569 259.77 160.462 252.211 147.996Z" fill="#263238"/>
<path opacity="0.2" d="M252.211 147.996C249.368 150.732 247.292 152.796 247.304 155.903C248.36 158.831 255.115 180.283 259.662 183.259C264.21 186.234 271.012 182.287 276.844 178.087C277.299 166.569 259.77 160.462 252.211 147.996Z" fill="white"/>
<path d="M218.617 155.339L219.061 164.074C216.242 172.832 205.611 167.253 205.611 167.253L199.42 166.641C198.335 166.46 197.35 165.9 196.638 165.061C195.926 164.222 195.535 163.158 195.533 162.058L195.185 155.951C195.024 154.698 195.364 153.433 196.13 152.429C196.895 151.425 198.026 150.764 199.276 150.588L204.7 150.24C206.273 150.143 207.846 150.431 209.283 151.08L218.617 155.339Z" fill="#FFC3BD"/>
<path d="M302.603 102.259C321.831 100.432 341.202 100.738 360.362 103.171C371.436 104.731 379.259 111.57 377.915 134.366C375.192 180.391 373.584 216.937 367.729 233.482C367.729 233.482 294.433 256.699 270.149 233.302C264.234 177.895 278.019 132.519 287.09 113.322C288.504 110.298 290.675 107.69 293.393 105.752C296.111 103.814 299.284 102.611 302.603 102.259Z" fill="#263238"/>
<path opacity="0.2" d="M306.635 175.7C306.553 175.701 306.474 175.672 306.413 175.619C306.351 175.566 306.31 175.492 306.299 175.412C305.879 172.664 306.947 169.629 307.882 166.941C308.503 165.399 308.934 163.788 309.166 162.142C309.238 160.942 309.166 159.658 309.166 158.471C308.999 156.479 309.158 154.473 309.634 152.532L309.982 151.44C310.678 149.292 311.182 147.732 310.666 146.137C310.318 145.069 311.014 142.657 311.758 140.138C312.418 137.858 313.162 135.266 312.838 134.414C312.07 132.387 312.01 130.611 313.785 126.496C314.489 124.713 314.74 122.784 314.517 120.881C314.303 119.451 314.503 117.989 315.093 116.669C315.113 116.63 315.141 116.594 315.176 116.566C315.21 116.537 315.25 116.516 315.292 116.504C315.335 116.492 315.38 116.488 315.424 116.494C315.468 116.5 315.511 116.514 315.549 116.537C315.627 116.58 315.685 116.653 315.709 116.738C315.734 116.824 315.724 116.915 315.681 116.993C315.155 118.204 314.988 119.541 315.201 120.845C315.428 122.855 315.156 124.891 314.409 126.772C312.718 130.683 312.754 132.279 313.474 134.175C313.881 135.23 313.162 137.774 312.406 140.33C311.758 142.561 311.026 145.129 311.314 145.957C311.902 147.768 311.314 149.496 310.63 151.692C310.51 152.04 310.402 152.4 310.282 152.772C309.827 154.643 309.681 156.576 309.85 158.495C309.85 159.694 309.91 160.894 309.85 162.214C309.615 163.93 309.168 165.611 308.518 167.217C307.606 169.821 306.575 172.784 306.971 175.352C306.977 175.396 306.975 175.441 306.964 175.485C306.953 175.528 306.934 175.569 306.907 175.604C306.88 175.64 306.847 175.67 306.808 175.693C306.77 175.715 306.727 175.73 306.683 175.736L306.635 175.7Z" fill="white"/>
<path d="M309.238 329.107C317.313 297.984 338.406 260.886 325.064 230.927L267.101 230.747C267.101 230.747 265.662 292.429 265.266 321.536C264.846 351.795 267.449 389.445 267.449 389.445L291.169 391.245C291.169 391.245 307.343 364.033 309.238 329.107Z" fill="#407BFF"/>
<path d="M292.285 392.181L266.657 390.297C266.439 390.283 266.234 390.19 266.079 390.035C265.924 389.881 265.831 389.675 265.817 389.457L265.265 379.955C265.257 379.822 265.278 379.689 265.328 379.565C265.377 379.441 265.453 379.33 265.551 379.239C265.648 379.149 265.765 379.081 265.892 379.041C266.019 379 266.153 378.989 266.285 379.007L294.709 382.738C294.838 382.754 294.961 382.797 295.072 382.866C295.182 382.934 295.276 383.026 295.347 383.135C295.418 383.243 295.464 383.366 295.482 383.495C295.5 383.623 295.49 383.754 295.453 383.878L293.209 391.485C293.161 391.691 293.043 391.874 292.874 392.001C292.705 392.128 292.496 392.192 292.285 392.181Z" fill="#263238"/>
<path opacity="0.2" d="M325.267 260.358C325.494 267.713 325.197 275.074 324.38 282.386C321.548 292.177 317.925 301.979 314.685 311.482C310.426 284.618 310.414 253.243 325.267 260.358Z" fill="black"/>
<path d="M369.984 319.041C372.792 287.57 383.182 245.217 373.14 230.747H303.767C303.767 230.747 317.577 293.473 323.252 322.496C329.143 352.683 346.048 391.101 346.048 391.101H368.521C368.521 391.101 377.123 354.939 369.984 319.041Z" fill="#407BFF"/>
<path d="M370.117 392.013H344.657C344.455 392.011 344.26 391.94 344.105 391.811C343.95 391.682 343.844 391.503 343.805 391.305L342.137 382.271C342.114 382.134 342.121 381.995 342.159 381.861C342.196 381.728 342.263 381.605 342.353 381.501C342.444 381.396 342.556 381.313 342.683 381.258C342.81 381.202 342.947 381.175 343.085 381.179L370.789 382.379C370.905 382.385 371.018 382.414 371.123 382.464C371.228 382.515 371.322 382.586 371.399 382.673C371.476 382.76 371.535 382.862 371.572 382.972C371.609 383.082 371.625 383.198 371.616 383.314L371.041 391.125C371.028 391.363 370.926 391.587 370.754 391.752C370.583 391.917 370.355 392.01 370.117 392.013Z" fill="#263238"/>
<path d="M308.999 107.287C311.206 105.127 313.522 106.387 314.59 103.124C315.066 100.56 314.642 97.9114 313.39 95.6247L339.666 81.443C339.15 91.1134 338.766 98.7442 343.049 102.596C344.249 109.794 332.083 115.853 316.317 115.098C308.903 114.75 305.819 110.382 308.999 107.287Z" fill="#FFC3BD"/>
<path opacity="0.2" d="M313.762 96.4405L334.518 91.2573C329.275 99.5 319.821 104.023 314.746 102.056C314.909 100.13 314.57 98.1956 313.762 96.4405Z" fill="black"/>
<path d="M312.621 52.9115C309.58 55.1337 306.675 57.5377 303.923 60.1103C304.924 60.4162 305.993 60.4162 306.994 60.1103C304.403 64.6216 305.411 70.8006 306.718 72.6363C313.149 66.6013 312.621 52.9115 312.621 52.9115Z" fill="#263238"/>
<path d="M322.352 49.1201C332.407 50.116 346.516 59.0425 345.281 69.9128C343.853 82.5467 340.481 90.7414 331.939 94.9768C314.842 103.375 306.503 95.2767 305.111 82.2708C303.851 70.5727 308.147 47.7284 322.352 49.1201Z" fill="#FFC3BD"/>
<path d="M339.545 57.1348C340.205 62.5699 339.426 67.861 336.522 69.3368C340.433 69.4568 341.837 68.6889 341.837 68.6889C341.837 68.6889 334.89 73.9681 339.545 77.3515C343.033 75.2219 346.07 72.4298 348.484 69.1328C348.484 69.1328 347.596 62.126 339.545 57.1348Z" fill="#263238"/>
<path opacity="0.2" d="M327.175 69.2767C328.758 68.753 330.484 68.8782 331.975 69.6247C330.367 69.8246 328.737 69.7064 327.175 69.2767Z" fill="black"/>
<path opacity="0.2" d="M327.175 70.4288C327.92 70.3452 328.675 70.4254 329.385 70.6637C330.096 70.9021 330.747 71.2928 331.291 71.8086C329.834 71.6549 328.43 71.184 327.175 70.4288Z" fill="black"/>
<path d="M319.053 82.7865C318.474 82.7876 317.897 82.7434 317.325 82.6545C317.237 82.6397 317.158 82.5916 317.104 82.5201C317.051 82.4486 317.027 82.3593 317.037 82.2705C317.043 82.225 317.058 82.1812 317.081 82.1417C317.105 82.1022 317.136 82.0679 317.173 82.041C317.21 82.014 317.252 81.9949 317.297 81.9848C317.342 81.9748 317.388 81.974 317.433 81.9826C318.866 82.2317 320.338 82.1388 321.729 81.7113C323.12 81.2839 324.39 80.5341 325.436 79.523C325.501 79.4578 325.589 79.4211 325.682 79.4211C325.774 79.4211 325.862 79.4578 325.928 79.523C325.989 79.5877 326.024 79.6736 326.024 79.7629C326.024 79.8523 325.989 79.9382 325.928 80.0029C325.024 80.8997 323.95 81.6077 322.77 82.0856C321.59 82.5634 320.326 82.8017 319.053 82.7865Z" fill="#263238"/>
<path d="M348.412 81.0348C347.532 82.2242 346.427 83.2285 345.158 83.9902C343.89 84.752 342.484 85.2562 341.021 85.4741C337.086 86.014 335.61 82.3666 337.122 78.9351C338.477 75.8396 342.149 71.8203 345.904 72.8521C349.66 73.884 350.547 78.0593 348.412 81.0348Z" fill="#FFC3BD"/>
<path d="M305.135 73.2842C303.239 81.3229 300.696 88.2458 303.023 91.2813C303.309 90.7262 303.66 90.2067 304.067 89.7335C304.165 91.7002 304.727 93.6158 305.707 95.3236C306.687 97.0315 308.057 98.4832 309.706 99.5599C309.929 98.8274 310.058 98.0695 310.09 97.3043C310.09 97.3043 315.429 100.34 327.175 97.7962C326.859 98.2277 326.639 98.7218 326.529 99.2453C326.42 99.7688 326.423 100.31 326.539 100.832C330.266 99.8785 333.506 97.5735 335.628 94.3649C337.75 91.1563 338.603 87.2732 338.022 83.4705C337.608 80.4112 338.233 77.3016 339.797 74.64C339.797 74.64 338.082 73.0322 336.054 75.7438C334.026 78.4553 332.154 91.2573 326.035 89.4336C320.792 87.8738 318.633 87.1779 315.477 89.5655C311.734 86.1821 307.954 84.5864 306.539 85.5462C305.195 83.7225 304.991 77.2435 305.135 73.2842Z" fill="#263238"/>
<path d="M327.703 96.8722C326.012 98.7319 320.253 100.352 317.733 100.616C318.639 99.8234 319.304 98.7923 319.653 97.6401L327.703 96.8722Z" fill="#263238"/>
<path d="M324.956 69.5888C324.884 70.6926 324.236 71.5445 323.504 71.4965C322.772 71.4485 322.304 70.5006 322.304 69.3848C322.304 68.269 323.024 67.4291 323.756 67.4891C324.488 67.5491 325.028 68.4729 324.956 69.5888Z" fill="#263238"/>
<path d="M311.968 68.7854C312.035 67.6808 311.499 66.7498 310.771 66.7059C310.044 66.6621 309.4 67.5219 309.333 68.6265C309.267 69.7311 309.803 70.6621 310.53 70.706C311.258 70.7499 311.902 69.89 311.968 68.7854Z" fill="#263238"/>
<path d="M314.805 69.8767L314.865 79.1992C314.865 79.1992 311.866 79.9431 310.066 78.3113C310.892 75.138 312.524 72.2323 314.805 69.8767Z" fill="#ED847E"/>
<path d="M326.936 66.7572C327.046 66.7809 327.161 66.7809 327.271 66.7572C327.352 66.7291 327.426 66.6852 327.489 66.6281C327.552 66.5709 327.603 66.5017 327.639 66.4245C327.674 66.3473 327.694 66.2637 327.697 66.1786C327.7 66.0936 327.686 66.0088 327.655 65.9293C327.327 64.9442 326.77 64.051 326.03 63.3231C325.289 62.5951 324.387 62.0533 323.396 61.742C323.313 61.7206 323.226 61.716 323.14 61.7287C323.055 61.7413 322.973 61.7708 322.899 61.8155C322.826 61.8602 322.761 61.9192 322.711 61.989C322.66 62.0588 322.624 62.138 322.604 62.2219C322.568 62.3919 322.599 62.5694 322.69 62.7171C322.782 62.8647 322.928 62.9711 323.096 63.0138C323.878 63.2675 324.588 63.7033 325.168 64.2853C325.747 64.8673 326.181 65.5789 326.432 66.3613C326.478 66.4628 326.548 66.5518 326.635 66.6207C326.723 66.6896 326.826 66.7364 326.936 66.7572Z" fill="#263238"/>
<path d="M305.303 64.1896C305.41 64.1874 305.516 64.1589 305.61 64.1067C305.704 64.0544 305.784 63.9799 305.843 63.8896C306.254 63.1833 306.83 62.5866 307.522 62.1501C308.213 61.7135 308.999 61.4501 309.814 61.382C309.987 61.3758 310.15 61.3018 310.269 61.1761C310.388 61.0505 310.453 60.8831 310.45 60.7101C310.441 60.5382 310.366 60.3764 310.241 60.2581C310.116 60.1398 309.95 60.074 309.778 60.0742C308.75 60.1487 307.755 60.47 306.878 61.011C306.001 61.552 305.267 62.2966 304.739 63.1817C304.649 63.3286 304.619 63.505 304.657 63.6732C304.696 63.8414 304.798 63.988 304.943 64.0816C305.051 64.1499 305.175 64.1873 305.303 64.1896Z" fill="#263238"/>
<path d="M373.14 230.747C374.6 224.192 375.403 217.508 375.539 210.794C375.582 209.584 375.281 208.386 374.672 207.339C374.062 206.293 373.169 205.44 372.096 204.879C367.21 202.23 363.085 198.371 360.117 193.671C357.148 188.972 355.436 183.59 355.143 178.039C355.059 176.565 354.547 175.147 353.668 173.96C352.79 172.773 351.585 171.868 350.199 171.356C328.663 163.57 298.092 165.213 285.41 167.853C283.795 168.175 282.332 169.021 281.247 170.259C280.162 171.498 279.517 173.061 279.411 174.704C278.775 184.83 276.471 200.32 270.28 203.667C269.374 204.116 268.579 204.764 267.956 205.561C267.333 206.359 266.897 207.286 266.681 208.274C264.617 219.253 267.161 230.747 267.161 230.747C267.161 230.747 306.443 237.382 373.14 230.747Z" fill="#407BFF"/>
<path opacity="0.2" d="M310.834 191.345H310.75C310.174 191.213 296.857 188.034 292.573 180.403C292.547 180.353 292.533 180.297 292.533 180.241C292.533 180.184 292.547 180.129 292.573 180.079C292.601 180.031 292.639 179.99 292.685 179.959C292.731 179.928 292.783 179.907 292.837 179.899C302.232 178.843 328.555 179.539 336.942 182.035C337.002 182.056 337.056 182.093 337.098 182.141C337.14 182.189 337.169 182.248 337.182 182.311C337.189 182.374 337.179 182.439 337.154 182.497C337.129 182.556 337.089 182.608 337.038 182.647C329.011 188.346 311.074 191.321 310.894 191.345H310.834ZM293.437 180.547C297.696 187.338 309.85 190.445 310.846 190.697C312.046 190.493 328.147 187.698 336.042 182.515C327.224 180.199 302.928 179.563 293.437 180.511V180.547Z" fill="black"/>
<path opacity="0.2" d="M311.314 211.886H311.002C300.839 211.886 295.176 210.518 292.633 207.447C290.089 204.375 290.917 199.6 292.057 193.673C292.71 190.522 293.195 187.337 293.509 184.134C293.521 184.045 293.565 183.964 293.634 183.906C293.703 183.849 293.791 183.819 293.881 183.822C293.924 183.825 293.967 183.837 294.006 183.857C294.045 183.877 294.079 183.905 294.108 183.938C294.136 183.972 294.156 184.011 294.169 184.053C294.182 184.095 294.185 184.139 294.181 184.182C293.87 187.406 293.381 190.611 292.717 193.781C291.613 199.54 290.737 204.075 293.161 206.979C295.584 209.882 301.055 211.166 311.002 211.166H311.314C322.676 211.166 328.951 211.166 332.106 207.759C335.262 204.351 335.322 197.62 334.506 185.358C334.502 185.27 334.533 185.183 334.591 185.116C334.649 185.05 334.73 185.007 334.818 184.998C334.908 184.994 334.996 185.024 335.064 185.082C335.133 185.14 335.178 185.221 335.19 185.31C336.066 198.04 335.91 204.711 332.634 208.227C329.359 211.742 322.868 211.886 311.314 211.886Z" fill="black"/>
<path d="M311.002 187.842C311.751 187.842 312.358 187.235 312.358 186.486C312.358 185.737 311.751 185.13 311.002 185.13C310.253 185.13 309.646 185.737 309.646 186.486C309.646 187.235 310.253 187.842 311.002 187.842Z" fill="white"/>
<path d="M294.504 161.542L286.106 162.19C285.545 162.23 284.991 162.047 284.564 161.681C284.137 161.315 283.872 160.795 283.826 160.234C283.786 159.675 283.97 159.122 284.336 158.697C284.703 158.272 285.222 158.01 285.782 157.967L294.18 157.331C294.457 157.308 294.736 157.34 295 157.426C295.265 157.511 295.509 157.648 295.72 157.829C295.931 158.01 296.104 158.231 296.229 158.479C296.354 158.727 296.428 158.997 296.448 159.275C296.469 159.551 296.436 159.829 296.35 160.093C296.264 160.356 296.126 160.6 295.946 160.811C295.765 161.022 295.545 161.195 295.298 161.32C295.051 161.445 294.781 161.521 294.504 161.542Z" fill="white"/>
<path d="M287.414 167.733L287.653 158.207C287.68 157.559 287.936 156.941 288.375 156.464C288.815 155.987 289.409 155.682 290.053 155.603C290.354 155.573 290.657 155.609 290.943 155.707C291.229 155.805 291.49 155.964 291.708 156.173C291.927 156.381 292.098 156.634 292.21 156.915C292.322 157.195 292.372 157.497 292.357 157.799L292.105 167.325C292.081 167.974 291.826 168.593 291.386 169.07C290.946 169.547 290.35 169.852 289.705 169.929C289.405 169.959 289.102 169.923 288.817 169.825C288.532 169.726 288.271 169.567 288.054 169.359C287.836 169.15 287.666 168.897 287.555 168.616C287.445 168.335 287.396 168.034 287.414 167.733Z" fill="white"/>
<path d="M300.492 102.151C297.792 105.403 287.294 120.244 286.526 159.574C286.519 159.72 286.569 159.862 286.665 159.972C286.762 160.082 286.897 160.15 287.042 160.162C288.939 160.201 290.836 160.097 292.717 159.85C292.853 159.835 292.978 159.771 293.069 159.669C293.16 159.567 293.21 159.435 293.209 159.298C293.209 154.955 293.785 122.572 306.551 101.947C306.603 101.86 306.63 101.761 306.63 101.66C306.63 101.559 306.603 101.459 306.551 101.372C306.5 101.285 306.426 101.213 306.337 101.165C306.248 101.116 306.148 101.092 306.047 101.096C304.241 101.142 302.452 101.445 300.732 101.995C300.639 102.024 300.556 102.078 300.492 102.151Z" fill="#407BFF"/>
<path d="M315.477 115.038C320.216 114.45 324.14 109.986 324.14 109.986C324.14 109.986 336.63 106.915 340.049 100.844C340.396 100.213 340.969 99.7384 341.654 99.5156C342.338 99.2927 343.081 99.3387 343.732 99.6441C345.054 100.19 346.294 100.917 347.416 101.804C347.416 101.804 339.185 122.632 315.477 115.038Z" fill="#263238"/>
<path d="M324.14 109.986C324.14 109.986 328.723 115.385 328.543 121.984C339.941 117.305 348.244 105.775 348.58 101.048C343.78 97.6762 340.865 98.3601 340.865 98.3601C340.865 98.3601 334.278 107.011 324.14 109.986Z" fill="#407BFF"/>
<path d="M315.477 115.037C313.786 113.682 313.882 110.562 314.865 109.734C314.457 106.999 314.865 105.559 314.781 101.336C310.486 101.06 306.719 105.823 305.363 109.098C304.007 112.374 312.586 115.721 315.477 115.037Z" fill="#263238"/>
<path d="M314.865 109.734C311.818 111.222 308.974 116.561 309.61 119.801C304.715 116.525 304.343 105.403 310.438 101.372C311.902 100.616 314.781 101.372 314.781 101.372C314.781 101.372 315.453 107.215 314.865 109.734Z" fill="#407BFF"/>
<path d="M319.257 131.007C319.053 132.207 318.393 133.154 317.781 133.046C317.169 132.938 316.845 131.847 317.049 130.647C317.253 129.447 317.913 128.499 318.525 128.607C319.137 128.715 319.461 129.771 319.257 131.007Z" fill="white"/>
<path d="M317.385 144.313C317.301 145.512 316.725 146.532 316.101 146.484C315.477 146.436 315.07 145.392 315.154 144.085C315.237 142.777 315.825 141.877 316.449 141.925C317.073 141.973 317.481 143.077 317.385 144.313Z" fill="white"/>
<path d="M315.381 158.626C315.285 159.826 314.709 160.846 314.097 160.798C313.486 160.75 313.054 159.706 313.15 158.399C313.246 157.091 313.821 156.191 314.433 156.227C315.045 156.263 315.477 157.391 315.381 158.626Z" fill="white"/>
<path d="M385.894 123.316L386.746 124.18L387.454 124.924L388.797 126.376C389.673 127.348 390.501 128.331 391.317 129.315C392.973 131.271 394.496 133.311 395.996 135.386C397.496 137.462 398.9 139.622 400.267 141.829C401.635 144.037 402.919 146.316 404.107 148.692C405.295 151.068 406.434 153.491 407.442 156.047C408.46 158.654 409.337 161.313 410.07 164.014C410.844 166.845 411.413 169.728 411.774 172.64C412.138 175.73 412.23 178.845 412.05 181.951L411.954 183.451C411.893 184.3 411.699 185.134 411.378 185.922C409.939 189.395 408.12 192.699 405.955 195.773C403.947 198.64 401.677 201.315 399.176 203.763C396.779 206.107 394.204 208.261 391.473 210.206C390.129 211.166 388.737 212.042 387.322 212.894C386.602 213.314 385.882 213.722 385.15 214.094L382.75 215.293C381.556 215.893 380.216 216.144 378.885 216.017C377.554 215.889 376.287 215.389 375.227 214.573C374.168 213.757 373.361 212.659 372.899 211.404C372.436 210.15 372.336 208.791 372.612 207.483L373.44 203.499C373.55 203.231 373.687 202.973 373.848 202.731L374.352 201.892L375.383 200.176C376.091 199.048 376.739 197.884 377.399 196.744C378.059 195.605 378.671 194.465 379.283 193.337C379.895 192.209 380.483 191.093 380.987 189.965C382.996 186 384.45 181.777 385.306 177.415L384.634 181.375C384.487 179.951 384.238 178.54 383.89 177.152C383.493 175.598 383.008 174.068 382.438 172.568C381.85 171.009 381.107 169.413 380.315 167.769C379.523 166.125 378.635 164.53 377.687 162.97C375.755 159.754 373.608 156.503 371.256 153.371C370.056 151.776 368.857 150.228 367.657 148.68L365.785 146.376L364.129 144.409L363.517 143.677C361.018 140.679 359.772 136.832 360.038 132.938C360.305 129.044 362.064 125.403 364.948 122.774C367.833 120.145 371.621 118.73 375.523 118.824C379.424 118.918 383.14 120.515 385.894 123.28V123.316Z" fill="#FFC3BD"/>
<path d="M365.101 104.383C396.008 115.182 412.865 165.022 412.865 165.022C409.734 173.972 392.337 179.623 381.982 178.627C381.982 178.627 350.595 143.257 346.288 127.96C342.293 113.802 351.027 99.3922 365.101 104.383Z" fill="#263238"/>
<path d="M376.823 174.38C378.863 177.763 380.423 180.247 383.446 180.919C386.53 180.547 408.954 178.747 412.865 174.98C416.777 171.212 414.437 163.702 411.666 157.079C400.519 154.067 390.669 169.785 376.823 174.38Z" fill="#263238"/>
<path opacity="0.2" d="M376.823 174.38C378.863 177.763 380.423 180.247 383.446 180.919C386.53 180.547 408.954 178.747 412.865 174.98C416.777 171.212 414.437 163.702 411.666 157.079C400.519 154.067 390.669 169.785 376.823 174.38Z" fill="white"/>
<path d="M379.271 202.263L382.871 210.23C383.47 219.408 371.532 218.125 371.532 218.125L365.533 219.828C364.459 220.059 363.338 219.901 362.369 219.382C361.4 218.864 360.647 218.019 360.242 216.997L357.675 211.442C357.065 210.336 356.916 209.034 357.26 207.819C357.603 206.604 358.412 205.574 359.51 204.951L364.43 202.635C365.856 201.964 367.426 201.655 369.001 201.735L379.271 202.263Z" fill="#FFC3BD"/>
<path d="M346.744 165.142L338.562 163.318C338.018 163.192 337.546 162.857 337.247 162.385C336.948 161.914 336.847 161.344 336.966 160.798C337.089 160.252 337.423 159.777 337.895 159.476C338.367 159.175 338.938 159.072 339.485 159.191L347.668 161.014C348.214 161.14 348.689 161.477 348.988 161.951C349.287 162.425 349.386 162.999 349.264 163.546C349.141 164.091 348.806 164.565 348.334 164.865C347.862 165.164 347.29 165.263 346.744 165.142Z" fill="white"/>
<path d="M340.266 170.541L340.602 160.942C340.633 160.316 340.896 159.724 341.34 159.281C341.783 158.837 342.375 158.574 343.001 158.542C343.31 158.542 343.616 158.605 343.901 158.727C344.185 158.849 344.441 159.028 344.653 159.253C344.865 159.477 345.03 159.743 345.136 160.034C345.241 160.324 345.287 160.633 345.269 160.942L344.933 170.541C344.901 171.167 344.638 171.759 344.195 172.202C343.751 172.645 343.159 172.908 342.533 172.94C342.224 172.941 341.918 172.878 341.634 172.756C341.35 172.634 341.094 172.455 340.881 172.23C340.669 172.005 340.505 171.739 340.399 171.449C340.293 171.158 340.248 170.849 340.266 170.541Z" fill="white"/>
<path d="M352.035 101.54C349.36 104.323 340.613 120.941 339.797 161.026C339.791 161.14 339.82 161.253 339.88 161.349C339.94 161.446 340.028 161.522 340.133 161.566C341.927 162.218 343.768 162.732 345.64 163.102C345.72 163.12 345.803 163.119 345.883 163.101C345.962 163.083 346.037 163.048 346.101 162.997C346.166 162.946 346.218 162.882 346.254 162.809C346.291 162.736 346.311 162.656 346.312 162.574C346.564 157.163 348.616 119.561 358.154 103.075C358.196 103.004 358.221 102.924 358.227 102.841C358.234 102.759 358.222 102.676 358.192 102.598C358.162 102.521 358.115 102.452 358.054 102.395C357.994 102.339 357.921 102.296 357.842 102.272C356.091 101.7 354.262 101.4 352.419 101.384C352.348 101.381 352.277 101.393 352.211 101.42C352.144 101.447 352.085 101.488 352.035 101.54Z" fill="#407BFF"/>
<path d="M289.154 423.172C288.23 414.078 292.189 390.513 292.189 390.513L266.705 388.738C266.705 388.738 269.549 419.273 266.705 422.644C262.758 425.452 252.115 427.131 252.115 427.131C252.115 427.131 250.772 430.731 251.588 433.382H288.35C288.697 433.383 289.04 433.305 289.352 433.154C289.665 433.002 289.939 432.782 290.154 432.509C290.369 432.237 290.519 431.919 290.593 431.579C290.667 431.24 290.663 430.888 290.581 430.551C289.945 428.125 289.468 425.66 289.154 423.172Z" fill="#263238"/>
<path d="M372.168 423.172C369.925 414.078 370.512 390.513 370.512 390.513L344.765 388.738C344.765 388.738 351.963 419.273 349.636 422.644C347.212 424.488 344.563 426.016 341.753 427.191C341.287 429.268 341.412 431.433 342.113 433.442H371.196C371.567 433.43 371.93 433.341 372.265 433.182C372.6 433.023 372.898 432.797 373.142 432.518C373.386 432.239 373.57 431.913 373.683 431.561C373.797 431.208 373.836 430.836 373.8 430.467C373.386 428.008 372.841 425.573 372.168 423.172Z" fill="#263238"/>
<path d="M266.453 226.896C266.453 226.896 265.253 231.887 266.981 235.882C293.689 243.081 351.507 240.681 375.455 235.57C375.743 232.524 375.23 229.455 373.968 226.668C373.968 226.668 342.593 231.647 312.358 230.891C282.122 230.135 266.453 226.896 266.453 226.896Z" fill="#263238"/>
<path d="M284.93 226.475C283.286 230.879 284.078 239.457 284.93 241.029C288.937 242.445 290.341 242.001 290.341 242.001C290.341 242.001 289.045 231.323 290.341 227.207C288.605 226.604 286.765 226.355 284.93 226.475Z" fill="#407BFF"/>
<path d="M344.345 228.107C345.988 232.499 345.197 241.089 344.345 242.661C340.337 244.065 338.934 243.633 338.934 243.633C338.934 243.633 340.229 232.955 338.934 228.839C340.67 228.236 342.51 227.987 344.345 228.107Z" fill="#407BFF"/>
<path d="M339.545 57.1348C334.842 56.9308 322.316 53.3674 322.316 53.3674C323.423 52.6209 324.688 52.1405 326.011 51.9636C319.725 52.0716 316.413 55.1791 307.522 53.4274C308.83 51.0278 315.921 47.5244 325.112 49.0601C330.697 50.0447 335.784 52.8907 339.545 57.1348Z" fill="#263238"/>
<path d="M201.688 99.3801C196.588 95.9127 195.917 101.036 195.917 101.036C195.917 127.18 213.638 406.243 215.257 431.583C215.246 432.035 215.405 432.474 215.703 432.815C216.001 433.155 216.416 433.37 216.865 433.418H219.565C219.801 433.389 220.028 433.313 220.234 433.193C220.44 433.074 220.619 432.914 220.762 432.724C220.904 432.533 221.006 432.316 221.062 432.085C221.119 431.853 221.127 431.613 221.088 431.379C219.373 404.707 201.628 125.464 201.688 99.3801Z" fill="#407BFF"/>
<path d="M200.044 124.24C198.942 124.297 197.839 124.167 196.78 123.856C196.462 123.745 196.187 123.538 195.993 123.262C195.799 122.987 195.697 122.657 195.701 122.32C195.413 117.077 194.285 96.9204 193.949 94.1129C187.218 94.8928 177.644 98.3242 172.604 76.4997C167.565 54.6752 167.181 28.6634 165.562 20.2288C171.657 25.9519 174.764 50.3679 176.924 62.7619C179.083 75.1559 182.119 80.831 186.954 80.639C191.789 80.4471 195.353 76.1998 193.421 60.7103C191.489 45.2207 185.97 14.6617 184.195 8.79462C190.134 11.3622 198.004 39.0297 200.428 62.126C202.852 85.2223 210.026 80.2671 213.722 76.1998C217.417 72.1324 211.226 27.6076 209.079 18.2731C214.61 27.3076 216.277 36.9301 218.857 55.5871C221.437 74.2441 226.056 93.357 202.504 93.057C202.971 98.4322 203.871 116.717 204.123 122.068C204.174 122.438 204.089 122.813 203.884 123.124C203.679 123.436 203.367 123.662 203.007 123.76L200.044 124.24Z" fill="#407BFF"/>
<path opacity="0.6" d="M200.044 124.24C198.942 124.297 197.839 124.167 196.78 123.856C196.462 123.745 196.187 123.538 195.993 123.262C195.799 122.987 195.697 122.657 195.701 122.32C195.413 117.077 194.285 96.9204 193.949 94.1129C187.218 94.8928 177.644 98.3242 172.604 76.4997C167.565 54.6752 167.181 28.6634 165.562 20.2288C171.657 25.9519 174.764 50.3679 176.924 62.7619C179.083 75.1559 182.119 80.831 186.954 80.639C191.789 80.4471 195.353 76.1998 193.421 60.7103C191.489 45.2207 185.97 14.6617 184.195 8.79462C190.134 11.3622 198.004 39.0297 200.428 62.126C202.852 85.2223 210.026 80.2671 213.722 76.1998C217.417 72.1324 211.226 27.6076 209.079 18.2731C214.61 27.3076 216.277 36.9301 218.857 55.5871C221.437 74.2441 226.056 93.357 202.504 93.057C202.971 98.4322 203.871 116.717 204.123 122.068C204.174 122.438 204.089 122.813 203.884 123.124C203.679 123.436 203.367 123.662 203.007 123.76L200.044 124.24Z" fill="white"/>
</svg>
